<?xml version='1.0' encoding='iso-8859-1'?>
<svg version="1.1" xmlns="http://www.w3.org/2000/svg" viewBox="0 0 227.895 227.895" xmlns:xlink="http://www.w3.org/1999/xlink" enable-background="new 0 0 227.895 227.895" style="stroke:#0d6efd;fill:#0d6efd">
  <path d="m154.759,90.674l1.206-4.765c2.692-10.643 10.982-22.096 14.309-26.394l1.486-1.735c4.378-5.11 7.115-10.189 8.369-15.527 2.1-8.938 0.584-18.164-4.269-25.978-4.849-7.806-12.441-13.262-21.381-15.36-2.582-0.607-5.228-0.915-7.863-0.915-16.063,0-29.851,10.93-33.525,26.577-1.258,5.353-1.054,11.085 0.615,17.497l.588,2.297c1.077,5.509 3.315,19.376 1.013,29.986l-1.042,4.804 5.645,1.379-18.393,78.355h-34.673v20h-10v20h-10v27h131v-27h-10v-20h-10v-20h-25.511l16.781-71.494 5.645,1.273z"/>
</svg>
